<?xml version="1.0" standalone="no"?>
<!DOCTYPE svg PUBLIC "-//W3C//DTD SVG 20010904//EN"
 "http://www.w3.org/TR/2001/REC-SVG-20010904/DTD/svg10.dtd">
<svg version="1.0" xmlns="http://www.w3.org/2000/svg"
 width="339.000000pt" height="199.000000pt" viewBox="0 0 339.000000 199.000000"
 preserveAspectRatio="xMidYMid meet">

<g transform="translate(0.000000,199.000000) scale(0.100000,-0.100000)"
fill="#000000" stroke="none">
<path d="M322 1331 c8 -22 274 -490 278 -490 3 0 46 72 95 161 l90 161 3 -247
c2 -238 3 -246 22 -246 20 0 20 8 20 328 0 215 -4 322 -10 312 -5 -8 -56 -97
-112 -197 -57 -101 -105 -183 -108 -183 -3 0 -57 92 -120 205 -99 176 -118
205 -138 205 -13 0 -22 -4 -20 -9z"/>
<path d="M666 1184 c-60 -107 -85 -161 -81 -175 4 -10 9 -19 13 -19 6 0 188
311 200 342 2 4 -7 8 -21 8 -21 0 -36 -21 -111 -156z"/>
<path d="M1080 1040 l0 -300 175 0 175 0 0 25 0 25 -155 0 -155 0 0 110 0 110
135 0 c128 0 135 1 135 20 0 19 -7 20 -135 20 l-135 0 0 119 0 120 53 5 c28 4
98 5 155 3 100 -3 102 -2 102 20 l0 23 -175 0 -175 0 0 -300z"/>
<path d="M2887 1326 c-48 -18 -83 -49 -110 -101 -19 -35 -22 -60 -25 -190 -5
-181 6 -237 54 -293 81 -95 254 -90 324 8 26 36 50 110 50 152 l0 28 -75 0
-75 0 0 -29 c0 -38 -35 -81 -66 -81 -49 0 -60 26 -67 159 -6 131 3 185 33 201
46 24 87 -1 99 -62 l7 -33 72 -3 72 -3 0 29 c0 42 -24 116 -50 152 -45 63
-164 96 -243 66z m156 -20 c44 -19 83 -63 102 -115 23 -66 20 -91 -10 -91 -20
0 -25 5 -25 25 0 37 -23 86 -54 114 -36 34 -127 41 -172 13 -55 -35 -64 -71
-64 -246 0 -176 13 -221 70 -251 40 -21 108 -19 147 4 30 19 32 19 47 2 19
-21 11 -32 -47 -56 -99 -41 -202 1 -248 100 -16 34 -19 66 -19 201 0 157 1
163 28 215 20 39 38 58 71 76 51 27 124 31 174 9z m-28 -60 c41 -18 75 -69 75
-113 0 -50 -32 -44 -50 9 -20 56 -56 78 -101 61 -24 -9 -36 -10 -46 -2 -21 18
-16 29 20 44 41 18 60 18 102 1z m-134 -218 l-3 -168 30 -30 c51 -51 111 -33
133 40 15 51 49 57 49 10 0 -131 -180 -171 -240 -54 -10 20 -16 69 -18 160 -4
146 8 217 36 212 15 -3 16 -21 13 -170z m275 -160 c-7 -46 -34 -108 -46 -108
-4 0 -13 6 -19 14 -8 10 -7 22 4 49 8 20 15 48 15 62 0 20 5 25 26 25 26 0 26
-2 20 -42z"/>
<path d="M1670 1255 l0 -75 75 0 75 0 0 -250 0 -250 75 0 75 0 0 250 0 250 75
0 75 0 0 75 0 75 -225 0 -225 0 0 -75z m430 30 l0 -25 -110 0 -110 0 0 -281 0
-280 -22 3 -23 3 4 256 c2 141 0 266 -3 277 -6 18 -16 22 -79 24 -66 3 -72 5
-75 26 l-3 22 210 0 211 0 0 -25z m-280 -60 c0 -24 -2 -25 -70 -25 -61 0 -70
2 -70 18 0 29 8 32 77 32 61 0 63 -1 63 -25z m280 0 c0 -24 -2 -25 -72 -25
-52 0 -76 4 -90 17 -10 9 -18 20 -18 25 0 4 41 8 90 8 89 0 90 0 90 -25z
m-150 -282 l0 -243 -25 0 -25 0 0 267 0 266 25 -23 25 -23 0 -244z"/>
<path d="M2250 1005 l0 -325 185 0 185 0 0 75 0 75 -110 0 -110 0 0 45 0 45
85 0 85 0 0 75 0 75 -85 0 -85 0 0 55 0 55 105 0 c58 0 106 3 106 8 1 4 3 30
5 57 5 90 16 85 -187 85 l-179 0 0 -325z m348 283 c-3 -22 -6 -23 -140 -26
l-138 -3 0 -104 0 -105 115 0 115 0 0 -25 0 -25 -115 0 -115 0 0 -95 0 -95
141 0 c140 0 140 0 137 -22 -3 -23 -5 -23 -165 -24 l-163 -1 0 273 0 274 166
0 165 0 -3 -22z m2 -63 l0 -25 -103 0 c-97 0 -105 1 -127 25 l-23 25 126 0
127 0 0 -25z m-220 -97 c0 -55 -1 -58 -25 -58 -25 0 -25 1 -25 82 l0 81 25
-23 c21 -20 25 -33 25 -82z m174 -154 c12 -31 5 -34 -77 -34 -76 0 -86 2 -107
25 l-23 25 100 0 c83 0 102 -3 107 -16z m-174 -96 c0 -45 -2 -48 -25 -48 -24
0 -25 2 -25 72 l0 71 25 -23 c20 -19 25 -33 25 -72z m218 -155 l3 -23 -165 0
-166 0 0 25 0 25 163 -2 c159 -3 162 -3 165 -25z"/>
<path d="M281 995 l-2 -325 26 0 25 0 0 242 c0 152 4 238 9 233 6 -6 50 -82
99 -170 77 -138 93 -160 116 -163 l27 -3 -33 58 c-18 32 -82 147 -143 256 -60
108 -113 197 -117 197 -3 0 -7 -146 -7 -325z"/>
<path d="M1194 1244 c27 -23 34 -25 132 -23 102 1 104 2 104 25 l0 24 -132 0
-133 -1 29 -25z"/>
<path d="M1150 1162 c0 -75 2 -82 20 -82 18 0 20 7 20 63 0 51 -4 68 -20 82
-20 18 -20 17 -20 -63z"/>
<path d="M360 863 c0 -186 1 -193 20 -193 19 0 20 7 20 160 0 142 -2 163 -20
192 l-20 33 0 -192z"/>
<path d="M737 1021 c-14 -24 -17 -56 -17 -190 0 -154 1 -161 20 -161 19 0 20
7 20 190 0 105 -1 190 -3 190 -1 0 -10 -13 -20 -29z"/>
<path d="M1194 954 c26 -23 35 -25 110 -22 75 3 81 5 84 26 3 22 2 22 -110 22
l-113 -1 29 -25z"/>
<path d="M1150 882 c0 -65 2 -71 20 -69 17 1 20 8 20 53 0 38 -5 55 -20 69
-20 18 -20 17 -20 -53z"/>
<path d="M1080 693 c0 -23 0 -23 175 -23 l175 0 0 23 0 23 -175 -1 c-175 0
-175 0 -175 -22z"/>
</g>
</svg>
