<?xml version="1.0" standalone="no"?>
<!DOCTYPE svg PUBLIC "-//W3C//DTD SVG 20010904//EN"
 "http://www.w3.org/TR/2001/REC-SVG-20010904/DTD/svg10.dtd">
<svg version="1.0" xmlns="http://www.w3.org/2000/svg"
 width="201.000000pt" height="218.000000pt" viewBox="0 0 201.000000 218.000000"
 preserveAspectRatio="xMidYMid meet">

<g transform="translate(0.000000,218.000000) scale(0.100000,-0.100000)"
fill="#000000" stroke="none">
<path d="M1257 1816 c-79 -29 -159 -101 -252 -227 -26 -35 -49 -66 -51 -68 -2
-2 -23 14 -48 37 -114 105 -240 179 -324 189 -44 5 -52 3 -82 -24 -30 -27 -34
-37 -38 -92 -6 -76 16 -170 69 -299 21 -52 36 -99 33 -103 -7 -12 -51 -11 -59
1 -3 6 -24 10 -45 10 -30 0 -43 -6 -59 -26 -12 -15 -21 -33 -21 -40 0 -8 -38
-38 -83 -68 -88 -56 -120 -91 -131 -141 -10 -45 26 -94 95 -128 63 -31 218
-67 295 -67 28 0 53 -3 56 -6 3 -3 -1 -33 -10 -67 -9 -39 -16 -110 -16 -192
-1 -108 2 -136 18 -168 19 -38 59 -67 94 -67 63 0 187 101 290 238 30 40 60
71 66 69 6 -2 12 -22 14 -45 4 -55 41 -86 92 -78 26 4 43 0 65 -15 60 -40 146
-80 188 -85 77 -9 127 47 127 143 0 48 -45 212 -79 286 -17 38 -31 74 -31 81
0 7 26 20 58 30 90 28 212 89 268 133 175 140 56 268 -281 302 -47 5 -88 11
-91 13 -8 9 8 38 20 38 7 0 22 10 34 23 27 29 29 80 3 106 -14 14 -19 38 -23
117 -6 119 -29 175 -79 193 -38 13 -35 13 -82 -3z m84 -25 c22 -18 24 -28 27
-128 l4 -109 -36 -28 c-28 -21 -36 -34 -36 -59 0 -18 7 -43 16 -55 10 -14 14
-32 10 -48 -6 -24 -8 -24 -111 -24 l-104 0 -58 66 c-32 36 -59 69 -61 74 -5
13 86 143 150 214 54 61 129 116 159 116 9 0 27 -9 40 -19z m-710 -86 c72 -36
124 -74 212 -155 l78 -72 -37 -67 c-65 -117 -66 -117 -151 -136 -43 -10 -83
-20 -90 -22 -9 -3 -29 28 -57 88 -57 121 -87 210 -93 279 -4 46 -2 59 17 83
27 34 57 35 121 2z m397 -375 c-7 -4 -41 -11 -76 -14 l-63 -7 33 61 33 61 43
-47 c32 -35 40 -49 30 -54z m272 -59 c0 -7 -15 -54 -35 -110 -4 -9 -21 7 -50
45 -24 32 -45 62 -45 67 0 4 29 7 65 7 36 0 65 -4 65 -9z m304 -6 c302 -53
269 -180 -79 -301 l-125 -44 -34 53 c-76 121 -73 102 -36 211 l32 96 78 0 c42
0 117 -7 164 -15z m-440 -87 c36 -50 66 -97 66 -103 0 -6 -20 -56 -45 -111
l-44 -99 -116 -14 c-111 -14 -116 -14 -130 5 -8 10 -40 54 -71 97 l-57 78 43
100 c23 54 47 103 54 107 13 8 144 29 198 31 35 1 39 -3 102 -91z m-389 31
c-4 -11 -16 -41 -27 -66 -22 -50 -30 -48 -67 16 -25 45 -25 44 44 60 57 13 57
13 50 -10z m-126 -103 l50 -84 -32 -96 -31 -96 -82 0 c-90 0 -237 23 -289 44
-115 48 -93 133 54 210 70 36 70 36 105 19 34 -16 38 -16 71 0 22 10 37 26 41
43 6 22 30 41 56 43 4 1 30 -37 57 -83z m660 -146 c17 -27 27 -51 23 -53 -4
-3 -23 -8 -42 -12 -19 -3 -43 -9 -52 -11 -10 -3 -18 -1 -18 5 0 14 48 121 54
121 2 0 18 -22 35 -50z m-524 -62 l46 -63 -62 -7 c-34 -4 -66 -5 -70 -3 -6 4
30 135 38 135 1 0 23 -28 48 -62z m621 -120 c81 -161 115 -293 90 -353 -8 -18
-23 -36 -35 -40 -33 -10 -96 13 -163 59 -57 38 -64 46 -69 85 -8 57 -37 85
-87 83 -69 -3 -71 15 -13 116 l51 89 67 15 c120 27 118 28 159 -54z m-306 16
c0 -4 -14 -31 -31 -61 l-31 -55 -43 49 c-24 26 -41 50 -40 52 4 3 94 17 128
20 9 0 17 -2 17 -5z m-172 -75 c91 -102 90 -83 17 -186 -79 -112 -174 -208
-220 -223 -77 -25 -112 38 -101 184 5 81 37 244 52 267 3 5 50 9 106 9 l100 0
46 -51z"/>
<path d="M944 1176 c-47 -21 -74 -65 -74 -124 0 -133 171 -182 240 -69 43 69
13 161 -60 191 -48 19 -65 19 -106 2z"/>
</g>
</svg>
