<?xml version="1.0" standalone="no"?>
<!DOCTYPE svg PUBLIC "-//W3C//DTD SVG 20010904//EN"
 "http://www.w3.org/TR/2001/REC-SVG-20010904/DTD/svg10.dtd">
<svg version="1.0" xmlns="http://www.w3.org/2000/svg"
 width="500.000000pt" height="500.000000pt" viewBox="0 0 500.000000 500.000000"
 preserveAspectRatio="xMidYMid meet">

<g transform="translate(0.000000,500.000000) scale(0.100000,-0.100000)"
fill="#000000" stroke="none">
<path d="M2405 4114 c-172 -20 -213 -39 -253 -120 -26 -54 -29 -56 -98 -79
-214 -71 -394 -198 -493 -346 l-40 -59 -5 42 c-3 24 -7 90 -10 147 -3 56 -11
109 -17 117 -21 25 -66 17 -98 -18 -44 -47 -57 -99 -77 -298 -17 -170 -18
-175 -50 -217 -19 -24 -38 -61 -44 -83 -13 -50 -14 -399 0 -449 28 -104 121
-171 241 -171 66 0 66 0 94 -40 15 -22 47 -58 71 -80 24 -22 44 -44 44 -48 0
-4 -30 -37 -66 -72 -145 -143 -295 -342 -349 -463 -32 -73 -55 -188 -46 -229
27 -117 131 -184 242 -158 64 16 158 77 236 155 35 35 65 60 67 57 2 -4 24
-46 49 -94 61 -119 147 -236 234 -319 147 -139 254 -189 427 -197 131 -6 192
6 303 59 96 46 223 160 313 280 62 84 145 238 180 337 16 45 31 67 49 77 61
31 280 203 368 288 111 108 186 215 214 310 18 58 19 74 9 116 -13 57 -56 112
-104 135 -34 16 -34 17 -23 54 6 21 11 119 11 227 1 209 -6 244 -56 309 -30
37 -32 46 -50 225 -16 159 -23 194 -46 241 -31 62 -65 86 -105 76 -33 -8 -35
-16 -45 -186 l-7 -135 -38 57 c-55 81 -190 205 -282 257 -80 46 -236 110 -268
111 -12 0 -26 18 -41 53 -40 89 -80 111 -235 126 -100 11 -144 12 -206 5z
m245 -54 c84 -13 115 -26 135 -56 30 -47 23 -51 -67 -38 -138 21 -428 14 -510
-12 -26 -8 -23 19 7 55 25 29 33 32 150 55 42 8 223 5 285 -4z m68 -146 c375
-55 639 -242 755 -534 46 -118 62 -212 61 -370 0 -130 -3 -153 -27 -225 -95
-286 -327 -461 -697 -527 -135 -23 -432 -28 -570 -9 -409 58 -672 253 -762
566 -18 65 -22 103 -22 205 4 495 295 813 819 895 113 18 319 18 443 -1z m898
-332 c7 -65 14 -134 14 -154 0 -36 -1 -37 -24 -27 -13 6 -29 22 -35 36 -12 27
-14 122 -4 238 6 75 7 76 20 50 8 -15 21 -79 29 -143z m-2185 21 c7 -107 6
-132 -8 -160 -15 -32 -49 -60 -60 -49 -3 2 2 70 11 149 15 138 30 207 43 194
3 -4 9 -64 14 -134z m9 -287 c0 -3 -8 -35 -17 -73 -11 -48 -17 -114 -17 -223
-1 -166 10 -231 59 -337 l24 -53 -35 0 c-42 0 -101 23 -132 53 -51 47 -56 70
-60 271 -5 249 10 300 100 345 39 19 78 27 78 17z m2185 -15 c80 -36 100 -83
109 -246 10 -163 -5 -296 -38 -345 -29 -44 -96 -80 -149 -80 -20 0 -37 2 -37
4 0 2 11 29 26 61 44 101 57 192 51 360 -3 89 -12 172 -21 205 -9 30 -16 56
-16 58 0 8 41 -1 75 -17z m162 -661 c102 -62 81 -200 -56 -373 -69 -87 -140
-152 -286 -261 -134 -101 -141 -105 -132 -82 4 9 12 57 18 106 12 101 -3 212
-41 297 l-21 47 33 25 c18 14 67 60 109 103 l75 78 63 0 c65 0 118 20 156 58
25 26 42 27 82 2z m-2099 -345 c-18 -49 -22 -83 -22 -185 0 -120 9 -179 46
-309 l13 -43 -81 -78 c-104 -100 -172 -140 -239 -140 -88 0 -145 57 -145 145
0 132 99 311 288 521 85 95 152 158 159 150 1 -1 -8 -28 -19 -61z m334 -59
c159 -46 288 -59 528 -53 278 7 431 38 602 122 l67 33 14 -21 c39 -62 55 -185
37 -302 -12 -79 -64 -262 -80 -279 -4 -4 -48 3 -97 17 -48 14 -103 28 -120 32
-30 6 -32 9 -25 33 23 85 -1 157 -65 194 -87 51 -688 51 -778 0 -17 -10 -40
-38 -53 -64 -22 -43 -23 -52 -13 -99 6 -29 10 -54 8 -56 -6 -5 -219 -62 -233
-63 -14 0 -47 86 -74 195 -34 133 -27 304 16 387 l14 27 82 -39 c46 -21 122
-50 170 -64z m767 -256 c73 -10 111 -38 111 -81 0 -14 -18 -62 -39 -105 -68
-134 -172 -214 -301 -232 -185 -26 -346 60 -430 231 -43 90 -47 118 -18 151
18 21 37 30 78 36 78 11 522 11 599 0z m-687 -320 c48 -100 126 -186 204 -224
160 -78 359 -49 478 70 49 48 106 137 127 197 12 35 16 37 44 32 54 -11 195
-57 201 -66 8 -13 -61 -132 -128 -221 -119 -156 -261 -260 -404 -294 -89 -21
-224 -14 -311 16 -161 56 -332 220 -448 432 l-37 68 29 11 c25 9 190 57 203
58 3 0 22 -35 42 -79z"/>
<path d="M2302 3620 c-338 -43 -580 -182 -682 -394 -53 -109 -78 -248 -62
-344 41 -245 258 -386 567 -368 55 4 141 14 190 22 118 22 247 21 365 -1 63
-12 142 -18 235 -18 124 0 149 3 221 26 205 67 316 230 301 440 -24 332 -248
545 -657 622 -101 19 -375 28 -478 15z m478 -75 c41 -9 82 -19 90 -22 8 -3 26
-8 40 -10 99 -17 330 -157 303 -184 -7 -7 -17 -3 -29 13 -11 14 -22 25 -27 26
-24 4 -126 70 -120 77 5 4 3 5 -3 2 -6 -4 -49 7 -95 23 -160 55 -388 79 -579
60 -155 -16 -163 -17 -180 -23 -40 -16 -135 -35 -143 -30 -6 3 -7 2 -4 -4 6
-9 -57 -36 -77 -33 -5 1 -12 -2 -15 -7 -13 -19 -62 -43 -73 -37 -7 4 -8 3 -4
-4 4 -6 -4 -16 -16 -23 -42 -23 -120 -103 -159 -164 -42 -65 -54 -65 -14 0 13
22 28 49 34 60 17 38 144 153 179 161 12 4 22 11 22 17 0 6 3 7 7 4 3 -4 13
-1 22 7 31 27 226 88 301 95 8 1 40 5 70 10 81 14 382 5 470 -14z m480 -247
c30 -34 95 -156 87 -164 -2 -3 -11 12 -20 33 -8 22 -36 62 -61 90 -41 45 -56
73 -41 73 3 0 19 -15 35 -32z m-1064 -227 c69 -31 114 -107 82 -139 -21 -21
-43 -13 -82 28 -34 36 -42 40 -88 40 -58 0 -82 -11 -125 -56 -36 -38 -45 -41
-67 -18 -24 24 -19 50 16 90 63 72 176 95 264 55z m802 -7 c78 -39 118 -119
73 -144 -28 -14 -28 -14 -70 32 -36 38 -44 42 -100 46 -59 4 -61 4 -102 -37
-45 -43 -69 -51 -89 -26 -27 32 27 111 95 141 51 22 134 17 193 -12z"/>
</g>
</svg>
